<mxfile host="Electron" modified="2024-01-08T09:56:47.603Z" agent="Mozilla/5.0 (Macintosh; Intel Mac OS X 10_15_7) AppleWebKit/537.36 (KHTML, like Gecko) draw.io/22.1.16 Chrome/120.0.6099.109 Electron/28.1.0 Safari/537.36" etag="rzaX7yDiWN5x35B1BNxY" version="22.1.16" type="device">
  <diagram name="Page-1" id="0fBU3942oDFJaHUNwFLl">
    <mxGraphModel dx="796" dy="714" grid="1" gridSize="10" guides="1" tooltips="1" connect="1" arrows="1" fold="1" page="1" pageScale="1" pageWidth="850" pageHeight="1100" math="0" shadow="0">
      <root>
        <mxCell id="0" />
        <mxCell id="1" parent="0" />
        <mxCell id="Ajprw_6TCzCYRHTClh9k-51" style="edgeStyle=orthogonalEdgeStyle;rounded=0;orthogonalLoop=1;jettySize=auto;html=1;entryX=0;entryY=0;entryDx=0;entryDy=0;" parent="1" source="Ajprw_6TCzCYRHTClh9k-1" target="Ajprw_6TCzCYRHTClh9k-49" edge="1">
          <mxGeometry relative="1" as="geometry">
            <Array as="points">
              <mxPoint x="438" y="330" />
              <mxPoint x="438" y="280" />
              <mxPoint x="98" y="280" />
              <mxPoint x="98" y="530" />
              <mxPoint x="202" y="530" />
            </Array>
          </mxGeometry>
        </mxCell>
        <mxCell id="Ajprw_6TCzCYRHTClh9k-1" value="" style="rounded=0;whiteSpace=wrap;html=1;" parent="1" vertex="1">
          <mxGeometry x="168" y="320" width="256" height="20" as="geometry" />
        </mxCell>
        <mxCell id="Ajprw_6TCzCYRHTClh9k-2" value="heap base" style="text;html=1;strokeColor=none;fillColor=none;align=right;verticalAlign=middle;whiteSpace=wrap;rounded=0;fontFamily=Latin Modern;" parent="1" vertex="1">
          <mxGeometry x="102" y="315" width="60" height="30" as="geometry" />
        </mxCell>
        <mxCell id="Ajprw_6TCzCYRHTClh9k-3" value="" style="rounded=0;whiteSpace=wrap;html=1;" parent="1" vertex="1">
          <mxGeometry x="184" y="320" width="12" height="20" as="geometry" />
        </mxCell>
        <mxCell id="Ajprw_6TCzCYRHTClh9k-5" value="" style="rounded=0;whiteSpace=wrap;html=1;fillColor=#EA6B66;strokeColor=#000000;fillStyle=solid;" parent="1" vertex="1">
          <mxGeometry x="196" y="320" width="4" height="20" as="geometry" />
        </mxCell>
        <mxCell id="Ajprw_6TCzCYRHTClh9k-6" value="" style="rounded=0;whiteSpace=wrap;html=1;" parent="1" vertex="1">
          <mxGeometry x="232" y="320" width="192" height="20" as="geometry" />
        </mxCell>
        <mxCell id="Ajprw_6TCzCYRHTClh9k-8" value="" style="shape=crossbar;whiteSpace=wrap;html=1;rounded=1;" parent="1" vertex="1">
          <mxGeometry x="232" y="310" width="192" height="5" as="geometry" />
        </mxCell>
        <mxCell id="Ajprw_6TCzCYRHTClh9k-9" value="" style="shape=crossbar;whiteSpace=wrap;html=1;rounded=1;" parent="1" vertex="1">
          <mxGeometry x="184" y="310" width="16" height="5" as="geometry" />
        </mxCell>
        <mxCell id="Ajprw_6TCzCYRHTClh9k-10" value="address" style="text;html=1;strokeColor=none;fillColor=none;align=center;verticalAlign=middle;whiteSpace=wrap;rounded=0;fontFamily=Latin Modern;" parent="1" vertex="1">
          <mxGeometry x="298" y="285" width="60" height="30" as="geometry" />
        </mxCell>
        <mxCell id="Ajprw_6TCzCYRHTClh9k-11" value="tag" style="text;html=1;strokeColor=none;fillColor=none;align=center;verticalAlign=middle;whiteSpace=wrap;rounded=0;fontFamily=Latin Modern;" parent="1" vertex="1">
          <mxGeometry x="162" y="285" width="60" height="30" as="geometry" />
        </mxCell>
        <mxCell id="Ajprw_6TCzCYRHTClh9k-12" value="" style="rounded=0;whiteSpace=wrap;html=1;" parent="1" vertex="1">
          <mxGeometry x="168" y="370" width="256" height="20" as="geometry" />
        </mxCell>
        <mxCell id="Ajprw_6TCzCYRHTClh9k-13" value="index" style="text;html=1;strokeColor=none;fillColor=none;align=right;verticalAlign=middle;whiteSpace=wrap;rounded=0;fontFamily=Latin Modern;" parent="1" vertex="1">
          <mxGeometry x="102" y="365" width="60" height="30" as="geometry" />
        </mxCell>
        <mxCell id="Ajprw_6TCzCYRHTClh9k-14" value="" style="rounded=0;whiteSpace=wrap;html=1;fillColor=#7EA6E0;strokeColor=#000000;fillStyle=solid;" parent="1" vertex="1">
          <mxGeometry x="184" y="370" width="12" height="20" as="geometry" />
        </mxCell>
        <mxCell id="Ajprw_6TCzCYRHTClh9k-15" value="" style="rounded=0;whiteSpace=wrap;html=1;" parent="1" vertex="1">
          <mxGeometry x="196" y="370" width="4" height="20" as="geometry" />
        </mxCell>
        <mxCell id="Ajprw_6TCzCYRHTClh9k-16" value="" style="rounded=0;whiteSpace=wrap;html=1;" parent="1" vertex="1">
          <mxGeometry x="232" y="370" width="192" height="20" as="geometry" />
        </mxCell>
        <mxCell id="Ajprw_6TCzCYRHTClh9k-17" value="" style="shape=crossbar;whiteSpace=wrap;html=1;rounded=1;" parent="1" vertex="1">
          <mxGeometry x="232" y="395" width="192" height="5" as="geometry" />
        </mxCell>
        <mxCell id="Ajprw_6TCzCYRHTClh9k-18" value="" style="shape=crossbar;whiteSpace=wrap;html=1;rounded=1;" parent="1" vertex="1">
          <mxGeometry x="184" y="395" width="16" height="5" as="geometry" />
        </mxCell>
        <mxCell id="Ajprw_6TCzCYRHTClh9k-19" value="index" style="text;html=1;strokeColor=none;fillColor=none;align=center;verticalAlign=middle;whiteSpace=wrap;rounded=0;fontFamily=Latin Modern;" parent="1" vertex="1">
          <mxGeometry x="298" y="390" width="60" height="30" as="geometry" />
        </mxCell>
        <mxCell id="Ajprw_6TCzCYRHTClh9k-20" value="tag" style="text;html=1;strokeColor=none;fillColor=none;align=center;verticalAlign=middle;whiteSpace=wrap;rounded=0;fontFamily=Latin Modern;" parent="1" vertex="1">
          <mxGeometry x="162" y="390" width="60" height="30" as="geometry" />
        </mxCell>
        <mxCell id="DnTZZTbxFjuXql46bozX-1" style="edgeStyle=orthogonalEdgeStyle;rounded=0;orthogonalLoop=1;jettySize=auto;html=1;" edge="1" parent="1" source="Ajprw_6TCzCYRHTClh9k-21" target="Ajprw_6TCzCYRHTClh9k-48">
          <mxGeometry relative="1" as="geometry">
            <Array as="points">
              <mxPoint x="438" y="460" />
              <mxPoint x="438" y="530" />
              <mxPoint x="296" y="530" />
            </Array>
          </mxGeometry>
        </mxCell>
        <mxCell id="Ajprw_6TCzCYRHTClh9k-21" value="" style="rounded=0;whiteSpace=wrap;html=1;" parent="1" vertex="1">
          <mxGeometry x="168" y="450" width="256" height="20" as="geometry" />
        </mxCell>
        <mxCell id="Ajprw_6TCzCYRHTClh9k-22" value="" style="rounded=0;whiteSpace=wrap;html=1;fillColor=#7EA6E0;strokeColor=#000000;fillStyle=solid;" parent="1" vertex="1">
          <mxGeometry x="184" y="450" width="12" height="20" as="geometry" />
        </mxCell>
        <mxCell id="Ajprw_6TCzCYRHTClh9k-24" value="" style="rounded=0;whiteSpace=wrap;html=1;" parent="1" vertex="1">
          <mxGeometry x="232" y="450" width="192" height="20" as="geometry" />
        </mxCell>
        <mxCell id="Ajprw_6TCzCYRHTClh9k-25" value="" style="shape=crossbar;whiteSpace=wrap;html=1;rounded=1;" parent="1" vertex="1">
          <mxGeometry x="232" y="475" width="192" height="5" as="geometry" />
        </mxCell>
        <mxCell id="Ajprw_6TCzCYRHTClh9k-26" value="" style="shape=crossbar;whiteSpace=wrap;html=1;rounded=1;" parent="1" vertex="1">
          <mxGeometry x="184" y="475" width="16" height="5" as="geometry" />
        </mxCell>
        <mxCell id="Ajprw_6TCzCYRHTClh9k-27" value="effective address" style="text;html=1;strokeColor=none;fillColor=none;align=center;verticalAlign=middle;whiteSpace=wrap;rounded=0;fontFamily=Latin Modern;" parent="1" vertex="1">
          <mxGeometry x="276" y="470" width="104" height="30" as="geometry" />
        </mxCell>
        <mxCell id="Ajprw_6TCzCYRHTClh9k-28" value="tag" style="text;html=1;strokeColor=none;fillColor=none;align=center;verticalAlign=middle;whiteSpace=wrap;rounded=0;fontFamily=Latin Modern;" parent="1" vertex="1">
          <mxGeometry x="162" y="470" width="60" height="30" as="geometry" />
        </mxCell>
        <mxCell id="Ajprw_6TCzCYRHTClh9k-32" value="" style="rounded=0;whiteSpace=wrap;html=1;fillColor=#EA6B66;strokeColor=#000000;fillStyle=solid;" parent="1" vertex="1">
          <mxGeometry x="196" y="450" width="4" height="20" as="geometry" />
        </mxCell>
        <mxCell id="Ajprw_6TCzCYRHTClh9k-37" style="edgeStyle=orthogonalEdgeStyle;rounded=0;orthogonalLoop=1;jettySize=auto;html=1;entryX=0;entryY=0.5;entryDx=0;entryDy=0;" parent="1" source="Ajprw_6TCzCYRHTClh9k-35" target="Ajprw_6TCzCYRHTClh9k-21" edge="1">
          <mxGeometry relative="1" as="geometry">
            <Array as="points">
              <mxPoint x="468" y="355" />
              <mxPoint x="468" y="430" />
              <mxPoint x="148" y="430" />
              <mxPoint x="148" y="460" />
            </Array>
          </mxGeometry>
        </mxCell>
        <mxCell id="Ajprw_6TCzCYRHTClh9k-38" style="edgeStyle=orthogonalEdgeStyle;rounded=0;orthogonalLoop=1;jettySize=auto;html=1;exitX=0.5;exitY=1;exitDx=0;exitDy=0;entryX=0.5;entryY=0;entryDx=0;entryDy=0;endArrow=none;endFill=0;" parent="1" source="Ajprw_6TCzCYRHTClh9k-35" target="Ajprw_6TCzCYRHTClh9k-12" edge="1">
          <mxGeometry relative="1" as="geometry" />
        </mxCell>
        <mxCell id="Ajprw_6TCzCYRHTClh9k-39" style="edgeStyle=orthogonalEdgeStyle;rounded=0;orthogonalLoop=1;jettySize=auto;html=1;exitX=0.5;exitY=0;exitDx=0;exitDy=0;entryX=0.5;entryY=1;entryDx=0;entryDy=0;endArrow=none;endFill=0;" parent="1" source="Ajprw_6TCzCYRHTClh9k-35" target="Ajprw_6TCzCYRHTClh9k-1" edge="1">
          <mxGeometry relative="1" as="geometry" />
        </mxCell>
        <mxCell id="Ajprw_6TCzCYRHTClh9k-35" value="+" style="rounded=1;whiteSpace=wrap;html=1;verticalAlign=middle;" parent="1" vertex="1">
          <mxGeometry x="288" y="347" width="16" height="16" as="geometry" />
        </mxCell>
        <mxCell id="Ajprw_6TCzCYRHTClh9k-40" value="" style="rounded=0;whiteSpace=wrap;html=1;" parent="1" vertex="1">
          <mxGeometry x="110" y="560" width="390" height="20" as="geometry" />
        </mxCell>
        <mxCell id="Ajprw_6TCzCYRHTClh9k-41" value="process memory" style="text;html=1;strokeColor=none;fillColor=none;align=right;verticalAlign=middle;whiteSpace=wrap;rounded=0;fontFamily=Latin Modern;" parent="1" vertex="1">
          <mxGeometry x="244" y="616" width="104" height="30" as="geometry" />
        </mxCell>
        <mxCell id="Ajprw_6TCzCYRHTClh9k-42" value="" style="rounded=0;whiteSpace=wrap;html=1;fillColor=#EA6B66;" parent="1" vertex="1">
          <mxGeometry x="202" y="575" width="226" height="5" as="geometry" />
        </mxCell>
        <mxCell id="Ajprw_6TCzCYRHTClh9k-43" value="" style="shape=crossbar;whiteSpace=wrap;html=1;rounded=1;" parent="1" vertex="1">
          <mxGeometry x="202" y="586" width="226" height="5" as="geometry" />
        </mxCell>
        <mxCell id="Ajprw_6TCzCYRHTClh9k-44" value="linear memory" style="text;html=1;strokeColor=none;fillColor=none;align=center;verticalAlign=middle;whiteSpace=wrap;rounded=0;fontFamily=Latin Modern;" parent="1" vertex="1">
          <mxGeometry x="263" y="586" width="104" height="30" as="geometry" />
        </mxCell>
        <mxCell id="Ajprw_6TCzCYRHTClh9k-49" value="" style="rounded=0;whiteSpace=wrap;html=1;" parent="1" vertex="1">
          <mxGeometry x="202" y="560" width="226" height="15" as="geometry" />
        </mxCell>
        <mxCell id="Ajprw_6TCzCYRHTClh9k-48" value="" style="rounded=0;whiteSpace=wrap;html=1;fillColor=#7EA6E0;" parent="1" vertex="1">
          <mxGeometry x="266" y="560" width="60" height="15" as="geometry" />
        </mxCell>
        <mxCell id="DnTZZTbxFjuXql46bozX-2" value="" style="shape=crossbar;whiteSpace=wrap;html=1;rounded=1;" vertex="1" parent="1">
          <mxGeometry x="110" y="616" width="390" height="5" as="geometry" />
        </mxCell>
      </root>
    </mxGraphModel>
  </diagram>
</mxfile>
